<svg xmlns="http://www.w3.org/2000/svg" viewBox="0 0 24 24">
<path d="M5 1.5 L5.00 1.50 L5.02 2.90 L5.04 3.10 L5.06 3.30 L5.08 3.50 L5.12 3.70 L5.18 3.90 L5.26 4.10 L5.36 4.30 L5.48 4.50 L5.65 4.70 L5.85 4.90 L6.09 5.10 L6.37 5.30 L6.69 5.50 L7.05 5.70 L7.43 5.90 L7.82 6.10 L8.21 6.30 L8.58 6.50 L8.92 6.70 L9.20 6.90 L9.42 7.10 L9.55 7.30 L9.60 7.50 L9.55 7.70 L9.42 7.90 L9.20 8.10 L8.92 8.30 L8.58 8.50 L8.21 8.70 L7.82 8.90 L7.43 9.10 L7.05 9.30 L6.69 9.50 L6.37 9.70 L6.09 9.90 L5.85 10.10 L5.65 10.30 L5.48 10.50 L5.36 10.70 L5.26 10.90 L5.18 11.10 L5.12 11.30 L5.08 11.50 L5.06 11.70 L5.04 11.90 L5.02 12.10 L5.00 22.50 L5 22.5 Z" fill="currentColor"/>
<path d="M5.00 1.50 L5.02 2.90 L5.04 3.10 L5.06 3.30 L5.08 3.50 L5.12 3.70 L5.18 3.90 L5.26 4.10 L5.36 4.30 L5.48 4.50 L5.65 4.70 L5.85 4.90 L6.09 5.10 L6.37 5.30 L6.69 5.50 L7.05 5.70 L7.43 5.90 L7.82 6.10 L8.21 6.30 L8.58 6.50 L8.92 6.70 L9.20 6.90 L9.42 7.10 L9.55 7.30 L9.60 7.50 L9.55 7.70 L9.42 7.90 L9.20 8.10 L8.92 8.30 L8.58 8.50 L8.21 8.70 L7.82 8.90 L7.43 9.10 L7.05 9.30 L6.69 9.50 L6.37 9.70 L6.09 9.90 L5.85 10.10 L5.65 10.30 L5.48 10.50 L5.36 10.70 L5.26 10.90 L5.18 11.10 L5.12 11.30 L5.08 11.50 L5.06 11.70 L5.04 11.90 L5.02 12.10 L5.00 22.50" fill="none" stroke="currentColor" stroke-width="1.6" stroke-linejoin="round" stroke-linecap="round"/>
<path d="M12 1.5 L12.00 1.50 L12.03 6.50 L12.05 6.70 L12.07 6.90 L12.10 7.10 L12.15 7.30 L12.22 7.50 L12.30 7.70 L12.42 7.90 L12.56 8.10 L12.74 8.30 L12.96 8.50 L13.23 8.70 L13.53 8.90 L13.87 9.10 L14.23 9.30 L14.62 9.50 L15.01 9.70 L15.40 9.90 L15.76 10.10 L16.07 10.30 L16.32 10.50 L16.50 10.70 L16.59 10.90 L16.59 11.10 L16.50 11.30 L16.32 11.50 L16.07 11.70 L15.76 11.90 L15.40 12.10 L15.01 12.30 L14.62 12.50 L14.23 12.70 L13.87 12.90 L13.53 13.10 L13.23 13.30 L12.96 13.50 L12.74 13.70 L12.56 13.90 L12.42 14.10 L12.30 14.30 L12.22 14.50 L12.15 14.70 L12.10 14.90 L12.07 15.10 L12.05 15.30 L12.03 15.50 L12.00 22.50 L12 22.5 Z" fill="currentColor"/>
<path d="M12.00 1.50 L12.03 6.50 L12.05 6.70 L12.07 6.90 L12.10 7.10 L12.15 7.30 L12.22 7.50 L12.30 7.70 L12.42 7.90 L12.56 8.10 L12.74 8.30 L12.96 8.50 L13.23 8.70 L13.53 8.90 L13.87 9.10 L14.23 9.30 L14.62 9.50 L15.01 9.70 L15.40 9.90 L15.76 10.10 L16.07 10.30 L16.32 10.50 L16.50 10.70 L16.59 10.90 L16.59 11.10 L16.50 11.30 L16.32 11.50 L16.07 11.70 L15.76 11.90 L15.40 12.10 L15.01 12.30 L14.62 12.50 L14.23 12.70 L13.87 12.90 L13.53 13.10 L13.23 13.30 L12.96 13.50 L12.74 13.70 L12.56 13.90 L12.42 14.10 L12.30 14.30 L12.22 14.50 L12.15 14.70 L12.10 14.90 L12.07 15.10 L12.05 15.30 L12.03 15.50 L12.00 22.50" fill="none" stroke="currentColor" stroke-width="1.6" stroke-linejoin="round" stroke-linecap="round"/>
<path d="M19 1.5 L19.00 1.50 L19.02 9.90 L19.04 10.10 L19.06 10.30 L19.08 10.50 L19.12 10.70 L19.18 10.90 L19.26 11.10 L19.36 11.30 L19.48 11.50 L19.65 11.70 L19.85 11.90 L20.09 12.10 L20.37 12.30 L20.69 12.50 L21.05 12.70 L21.43 12.90 L21.82 13.10 L22.21 13.30 L22.58 13.50 L22.92 13.70 L23.20 13.90 L23.42 14.10 L23.55 14.30 L23.60 14.50 L23.55 14.70 L23.42 14.90 L23.20 15.10 L22.92 15.30 L22.58 15.50 L22.21 15.70 L21.82 15.90 L21.43 16.10 L21.05 16.30 L20.69 16.50 L20.37 16.70 L20.09 16.90 L19.85 17.10 L19.65 17.30 L19.48 17.50 L19.36 17.70 L19.26 17.90 L19.18 18.10 L19.12 18.30 L19.08 18.50 L19.06 18.70 L19.04 18.90 L19.02 19.10 L19.00 22.50 L19 22.5 Z" fill="currentColor"/>
<path d="M19.00 1.50 L19.02 9.90 L19.04 10.10 L19.06 10.30 L19.08 10.50 L19.12 10.70 L19.18 10.90 L19.26 11.10 L19.36 11.30 L19.48 11.50 L19.65 11.70 L19.85 11.90 L20.09 12.10 L20.37 12.30 L20.69 12.50 L21.05 12.70 L21.43 12.90 L21.82 13.10 L22.21 13.30 L22.58 13.50 L22.92 13.70 L23.20 13.90 L23.42 14.10 L23.55 14.30 L23.60 14.50 L23.55 14.70 L23.42 14.90 L23.20 15.10 L22.92 15.30 L22.58 15.50 L22.21 15.70 L21.82 15.90 L21.43 16.10 L21.05 16.30 L20.69 16.50 L20.37 16.70 L20.09 16.90 L19.85 17.10 L19.65 17.30 L19.48 17.50 L19.36 17.70 L19.26 17.90 L19.18 18.10 L19.12 18.30 L19.08 18.50 L19.06 18.70 L19.04 18.90 L19.02 19.10 L19.00 22.50" fill="none" stroke="currentColor" stroke-width="1.6" stroke-linejoin="round" stroke-linecap="round"/>
</svg>
